/* XPM */
static char * maximize_toggled_active_xpm[] = {
"45 32 3 1",
" 	c #191919",
".	c #FFFFFF",
"+	c #040804",
"                                             ",
"                                             ",
"                                             ",
"                                             ",
"                                             ",
"                                             ",
"                                             ",
"                                             ",
"                                             ",
"                                             ",
"                    ........                 ",
"                    .++++++.                 ",
"                  ........+.                 ",
"                  .++++++.+.                 ",
"                  .++++++.+.                 ",
"                  .++++++.+.                 ",
"                  .++++++.+.                 ",
"                  .++++++...                 ",
"                  .++++++.                   ",
"                  ........                   ",
"                                             ",
"                                             ",
"                                             ",
"                                             ",
"                                             ",
"                                             ",
"                                             ",
"                                             ",
"                                             ",
"                                             ",
"                                             ",
"                                             "};
