/* XPM */
static char * close_prelight_xpm[] = {
"45 32 3 1",
" 	c #3B3E3F",
".	c #E81123",
"+	c #FFFFFF",
"                                             ",
".............................................",
".............................................",
".............................................",
".............................................",
".............................................",
".............................................",
".............................................",
".............................................",
".............................................",
"..................+........+.................",
"...................+......+..................",
"....................+....+...................",
".....................+..+....................",
"......................++.....................",
"......................++.....................",
".....................+..+....................",
"....................+....+...................",
"...................+......+..................",
"..................+........+.................",
".............................................",
".............................................",
".............................................",
".............................................",
".............................................",
".............................................",
".............................................",
".............................................",
".............................................",
".............................................",
".............................................",
"............................................."};
