/* XPM */
static char * hide_active_xpm[] = {
"45 32 3 1",
" 	c #141A1B",
".	c #F2F2F2",
"+	c #222222",
"                                             ",
".............................................",
".............................................",
".............................................",
".............................................",
".............................................",
".............................................",
".............................................",
".............................................",
".............................................",
".............................................",
".............................................",
".............................................",
".............................................",
".............................................",
"..................++++++++++.................",
".............................................",
".............................................",
".............................................",
".............................................",
".............................................",
".............................................",
".............................................",
".............................................",
".............................................",
".............................................",
".............................................",
".............................................",
".............................................",
".............................................",
".............................................",
"............................................."};
